<svg width="40" height="40" viewBox="0 0 40 40" xmlns="http://www.w3.org/2000/svg">
  <path fill="#DB69E0" d="M34.58 35.99c3.05 0 4.29-2.16 2.77-4.8L22.77 5.94c-1.52-2.64-4.02-2.64-5.54 0L14 11.54c.65-.73 1.41-1.12 2.21-1.12 1.09 0 2.11.72 2.87 2.03l10.79 18.69c.76 1.31.87 2.55.33 3.5-.4.7-1.13 1.16-2.09 1.35h6.48z"/>
  <path fill="#A669EF" d="M23.16 36c3.05 0 4.29-2.16 2.77-4.8l-8.86-15.35c-1.52-2.64-4.02-2.64-5.54 0l-2.89 5.01c.65-.73 1.41-1.12 2.21-1.12 1.09 0 2.11.72 2.87 2.03l5.41 9.37c.76 1.31.87 2.55.33 3.5-.4.7-1.13 1.16-2.09 1.35h5.8z"/>
  <path fill="#7167F6" d="M6.15 25.14c1.52-2.64 4.02-2.64 5.54 0l3.5 6.07c1.52 2.64.28 4.8-2.77 4.8H5.41c-3.05 0-4.29-2.16-2.77-4.8l3.5-6.07h.01"/>
</svg>
