<svg width="16" height="17" viewBox="0 0 16 17" fill="none" xmlns="http://www.w3.org/2000/svg">
<path d="M9 10.0039H13V11.0039H9V10.0039ZM9 8.00391H13V9.00391H9V8.00391Z" fill="#62B543" fill-opacity="0.7"/>
<path d="M3 6.00391H13V7.00391H3V6.00391Z" fill="#9AA7B0" fill-opacity="0.8"/>
<path fill-rule="evenodd" clip-rule="evenodd" d="M13.75 2.00391H2.25C1.91848 2.00391 1.60054 2.1356 1.36612 2.37002C1.1317 2.60444 1 2.92239 1 3.25391V7.00391H2V5.00391H14V11.7539C14 11.8202 13.9737 11.8838 13.9268 11.9307C13.8799 11.9776 13.8163 12.0039 13.75 12.0039H9V13.0039H13.75C14.0815 13.0039 14.3995 12.8722 14.6339 12.6378C14.8683 12.4034 15 12.0854 15 11.7539V3.25391C15 2.92239 14.8683 2.60444 14.6339 2.37002C14.3995 2.1356 14.0815 2.00391 13.75 2.00391Z" fill="#9AA7B0" fill-opacity="0.8"/>
<path fill-rule="evenodd" clip-rule="evenodd" d="M8 8.00391H0V15.0039H8V8.00391ZM7 12.0039H4V13.0039H7V12.0039ZM3.03421 10.4181L3.74132 11.1252L3.03421 11.8323L1.62 13.2465L0.912893 12.5394L2.32711 11.1252L0.912893 9.71101L1.62 9.00391L3.03421 10.4181Z" fill="#40B6E0"/>
</svg>
