<svg width="16" height="16" viewBox="0 0 16 16" xmlns="http://www.w3.org/2000/svg">
  <path fill="#EBECF0" stroke="#6C707E" stroke-linecap="round" stroke-linejoin="round" d="M7 2.65c.55-.95 1.45-.95 2 0l5.27 9.12c.55.95.1 1.73-1 1.73H2.73c-1.1 0-1.55-.78-1-1.73L7 2.65Z"/>
  <path fill="none" stroke="#6C707E" stroke-miterlimit="10" d="M4.93 6.23c.55-.95 1.45-.95 2 0l3.2 5.54c.55.95.1 1.73-1 1.73h-6.4c-1.1 0-1.55-.78-1-1.73l3.2-5.54Z"/>
  <path fill="none" stroke="#6C707E" stroke-miterlimit="10" d="M3 9.58c.55-.95 1.45-.95 2 0l1.26 2.19c.55.95.1 1.73-1 1.73H2.73c-1.1 0-1.55-.78-1-1.73l1.26-2.19z"/>
</svg>
