<svg width="16" height="16" viewBox="0 0 16 16" xmlns="http://www.w3.org/2000/svg">
  <path fill="#9aa7b0" d="M14.22 11.45 9.06 2.51c-.29-.5-.72-.79-1.18-.79s-.9.29-1.18.79L3.21 8.56l.43.25c.41-.71 1.09-.71 1.5 0l1.67 2.89c.41.71.08 1.3-.75 1.3v.5h6.99c.58 0 1.04-.23 1.27-.63.23-.4.2-.92-.09-1.42Z" opacity=".4"/>
  <path fill="#9aa7b0" d="M14.22 11.45 9.06 2.51c-.29-.5-.72-.79-1.18-.79s-.9.29-1.18.79L4.94 5.56l.43.25c.41-.71 1.09-.71 1.5 0l3.4 5.89c.41.71.08 1.3-.75 1.3v.5h3.52c.58 0 1.04-.23 1.27-.63.23-.4.2-.92-.09-1.42Z" opacity=".5"/>
  <path fill="#9aa7b0" d="M14.66 11.2 9.5 2.26c-.38-.66-.97-1.04-1.62-1.04s-1.24.38-1.62 1.04L1.1 11.2c-.38.66-.41 1.36-.09 1.92.32.56.95.88 1.71.88h10.32c.76 0 1.38-.32 1.71-.88.32-.56.29-1.26-.09-1.92ZM13.04 13H2.72c-.83 0-1.16-.58-.75-1.3l5.16-8.94c.41-.71 1.09-.71 1.5 0l5.16 8.94c.41.71.08 1.3-.75 1.3Z"/>
</svg>
