<!-- Copyright © 2000–2026 JetBrains s.r.o. -->
<svg width="14" height="14" viewBox="0 0 14 14" xmlns="http://www.w3.org/2000/svg">
  <path fill="none" stroke="#ced0d6" stroke-linecap="round" stroke-linejoin="round" d="M7.1 13.5c-.28 0-.55-.02-.82-.05l-.25-.03-.93-1.65c-.23-.4-.65-.65-1.11-.65l-1.91.02-.15-.2c-.33-.43-.61-.91-.82-1.42l-.1-.23.97-1.63c.24-.4.24-.9 0-1.3l-.97-1.63.1-.23c.21-.5.49-.98.82-1.42l.15-.2 1.9.02c.47 0 .9-.25 1.13-.65L6.04.6l.25-.03c.27-.03.54-.05.82-.05s.55.02.82.05l.25.03.93 1.65c.23.4.65.65 1.11.65l1.91-.02.15.2c.33.44.61.91.82 1.42l.1.23-.97 1.63c-.24.4-.24.9 0 1.3l.97 1.63-.1.23c-.21.5-.49.98-.82 1.42l-.15.2-1.9-.02c-.47 0-.9.25-1.13.65l-.93 1.65-.25.03c-.27.03-.54.05-.82.05" clip-rule="evenodd"/>
  <path fill="#253627" stroke="#57965c" stroke-miterlimit="10" d="M10.1 7c0 .29-.15.55-.39.71L6.38 9.79c-.13.08-.29.13-.44.13-.46 0-.83-.37-.83-.83V4.93a.828.828 0 0 1 1.27-.7l3.33 2.08c.25.15.39.42.39.71z"/>
</svg>
